PathFileType	4	(X/Y/Z)	./resultDataOpenSim/trcMotMarkerGrf/sub10/qtm-02-04.trc
DataRate	CameraRate	NumFrames	NumMarkers	Units	OrigDataRate	OrigDataStartFrame	OrigNumFrames
250.000000	250.000000	9	24	m	250.000000	307	490
Frame#	Time	L.Toe.Tip			R.Toe.Tip			L.Ankle.Lat			R.Ankle.Lat			L.Ankle.Med			R.Ankle.Med			L.Heel			R.Heel			L.Knee.Lat			R.Knee.Lat			L.Knee.Med			R.Knee.Med			L.Thigh.Upper			R.Thigh.Upper			L.ASIS			R.ASIS			V.Sacral			L.Acromium			R.Acromium			C7			L.Elbow			R.Elbow			L.Wrist.Lat			R.Wrist.Lat
		X1	Y1	Z1	X2	Y2	Z2	X3	Y3	Z3	X4	Y4	Z4	X5	Y5	Z5	X6	Y6	Z6	X7	Y7	Z7	X8	Y8	Z8	X9	Y9	Z9	X10	Y10	Z10	X11	Y11	Z11	X12	Y12	Z12	X13	Y13	Z13	X14	Y14	Z14	X15	Y15	Z15	X16	Y16	Z16	X17	Y17	Z17	X18	Y18	Z18	X19	Y19	Z19	X20	Y20	Z20	X21	Y21	Z21	X22	Y22	Z22	X23	Y23	Z23	X24	Y24	Z24

307	1.224	0.038589743	0.017995429	-0.13496077	0.8309797	0.070912102	0.037242353	-0.054077369	0.11548241	-0.1542732	0.69015196	0.055440567	0.069222028	-0.026366492	0.1258164	-0.074150857	0.70661567	0.086152887	-0.013418162	-0.11780052	0.12783542	-0.10616057	0.64820433	0.020725396	0.021839299	0.18665259	0.41670863	-0.19614838	0.59810681	0.44369628	0.089305243	0.20390705	0.38332585	-0.076945159	0.6224336	0.45696303	-0.03802826	0.29810951	0.79274618	-0.23743235	0.42656749	0.81369953	0.13230308	0.38822846	0.88896713	-0.20197757	0.46578687	0.90799324	0.032957864	0.2430734	0.9017063	-0.011711867	0.38550955	1.3657064	-0.20874142	0.36035775	1.3575309	0.11187603	0.29035039	1.3921003	-0.059256394	0.33641842	1.0175787	-0.25187739	0.1646225	1.0715699	0.12333218	0.61952218	0.9702093	-0.24610047	0.16957803	0.85055729	0.2255886
308	1.228	0.039629303	0.018027748	-0.13495009	0.83337563	0.068307452	0.037007647	-0.049720389	0.11853736	-0.15465988	0.6923621	0.055393177	0.069528676	-0.021213521	0.12805917	-0.074830298	0.70905499	0.085773273	-0.01331425	-0.11247503	0.13246685	-0.10604805	0.64925563	0.021619263	0.022260519	0.19497353	0.41667318	-0.19653161	0.60344745	0.44360352	0.089427948	0.21197911	0.38274194	-0.077443522	0.62747755	0.45672968	-0.038215702	0.30623476	0.79226926	-0.23683709	0.43311771	0.81426016	0.13346974	0.39629553	0.88862435	-0.20087187	0.47258633	0.90886616	0.0343674	0.25013616	0.90137487	-0.012347657	0.39224939	1.36637	-0.20772167	0.36754099	1.3577713	0.11287764	0.29713163	1.3923447	-0.057987051	0.342274	1.0181988	-0.25136463	0.17212437	1.0717464	0.12353039	0.62450726	0.97004898	-0.24548594	0.17612365	0.85077591	0.22578869
309	1.232	0.040775244	0.018053786	-0.13501237	0.83530551	0.065958078	0.03649427	-0.045017907	0.12160125	-0.15506345	0.69435597	0.055290232	0.069966323	-0.015641152	0.1302013	-0.075578453	0.7110336	0.085408728	-0.013151513	-0.10665137	0.13711488	-0.10588237	0.65022788	0.022401329	0.022780034	0.20354905	0.41659245	-0.19692025	0.60911273	0.44392353	0.089609588	0.22043943	0.38205701	-0.078009645	0.63244889	0.45668988	-0.038359289	0.31447436	0.79172747	-0.23619009	0.4397399	0.81496314	0.13472284	0.40440376	0.8883113	-0.19971804	0.47938048	0.90976116	0.035860283	0.25690051	0.90138125	-0.012755236	0.39905417	1.3670837	-0.20669361	0.37470551	1.3580595	0.11389062	0.30389962	1.3926966	-0.056617039	0.34814848	1.0188931	-0.25085648	0.1796952	1.0718991	0.12378496	0.62942385	0.96984774	-0.2449423	0.18290245	0.85098871	0.22601806
310	1.236	0.042101299	0.01804051	-0.13512832	0.83689823	0.063556225	0.03578836	-0.03994717	0.12463835	-0.15547279	0.69618404	0.055139286	0.070482904	-0.0096212483	0.13220535	-0.07640081	0.71263712	0.085052892	-0.012957466	-0.10030639	0.14174972	-0.1056417	0.65108872	0.023117041	0.023345691	0.21237401	0.41645833	-0.19732899	0.61510323	0.44467624	0.089877275	0.22931263	0.38126145	-0.078701915	0.63744465	0.4568803	-0.038481392	0.32280938	0.79111131	-0.23550929	0.44642129	0.81580872	0.13602584	0.41254016	0.88802412	-0.19852551	0.48617632	0.91068383	0.037418178	0.26357865	0.90174189	-0.012998286	0.40591023	1.367838	-0.20565882	0.38185034	1.3583902	0.11490805	0.31071721	1.3931742	-0.055290918	0.35417094	1.0196555	-0.25040102	0.1873005	1.0720322	0.1240814	0.63427472	0.96961135	-0.24449308	0.18985606	0.85120022	0.22626977
311	1.24	0.043644616	0.017944842	-0.13528254	0.83830662	0.060931217	0.035020277	-0.034483141	0.1276008	-0.1558801	0.69783725	0.054960954	0.070979255	-0.0031438726	0.1340377	-0.077298218	0.71401505	0.084700032	-0.01274641	-0.093427621	0.14634263	-0.10531675	0.6518368	0.023795751	0.023907427	0.2214558	0.41627631	-0.19778053	0.62136699	0.4457872	0.090236995	0.23862615	0.38035666	-0.079649045	0.64248368	0.45729695	-0.038592529	0.33122572	0.79042525	-0.23484405	0.45315866	0.81678442	0.13733412	0.42068844	0.88775372	-0.19730641	0.4929848	0.91163908	0.03902381	0.27036146	0.9022992	-0.013224499	0.41280098	1.3686213	-0.2046135	0.38898024	1.3587541	0.11592336	0.317629	1.3937492	-0.054102339	0.36033007	1.0204952	-0.24997645	0.19489787	1.0721492	0.12439435	0.63906776	0.96934582	-0.24415074	0.19691995	0.85141243	0.22653776
312	1.244	0.045377117	0.01773058	-0.13547414	0.83961554	0.058068521	0.034270063	-0.028609802	0.13044445	-0.15628548	0.69928763	0.054774284	0.071380657	0.0037673675	0.13567686	-0.078262027	0.71530421	0.084338552	-0.012525952	-0.086023605	0.15087175	-0.10491848	0.65249948	0.024448247	0.02443948	0.23082484	0.41605183	-0.19832096	0.62784336	0.44710474	0.090644941	0.24842363	0.37936583	-0.080957478	0.64755267	0.45790799	-0.038691986	0.33971819	0.78967785	-0.2342299	0.45995146	0.81787932	0.13860223	0.4288338	0.88749054	-0.19606718	0.49982767	0.91263457	0.040670316	0.27731157	0.90292811	-0.01348979	0.41971725	1.3694171	-0.20354493	0.39609213	1.3591463	0.11693119	0.3246282	1.3943491	-0.053046367	0.36651609	1.0214352	-0.24953467	0.20246381	1.0722559	0.12471995	0.64380533	0.96904116	-0.24389492	0.20401667	0.85161695	0.22680672
313	1.248	0.047219194	0.017395477	-0.13569933	0.84084181	0.05505082	0.033542636	-0.022336569	0.13314748	-0.15669504	0.7005699	0.054582406	0.071680645	0.011066789	0.13712482	-0.079267731	0.71658232	0.08395129	-0.012301954	-0.078137819	0.15532902	-0.10447551	0.65312056	0.025083287	0.02494049	0.24048813	0.41578071	-0.1989798	0.6344909	0.44845021	0.091072627	0.25868357	0.37829351	-0.082578152	0.65263594	0.45866723	-0.038770421	0.34827611	0.78887342	-0.23365381	0.46679269	0.81908384	0.13979341	0.43697103	0.88723175	-0.19480481	0.50672622	0.91367678	0.042352843	0.28437294	0.9035952	-0.013757885	0.42665116	1.3702085	-0.20244272	0.40316709	1.3595663	0.11792756	0.33167145	1.3949026	-0.052066428	0.37245465	1.0225067	-0.24897423	0.21000248	1.0723617	0.12509139	0.64847824	0.96866632	-0.24368043	0.21106545	0.85179718	0.22705719
314	1.252	0.049087156	0.016999973	-0.13593869	0.84200646	0.052006074	0.032814775	-0.015708505	0.13572371	-0.15711534	0.70178856	0.05437561	0.071916232	0.018697575	0.1384163	-0.080279009	0.717873	0.083524369	-0.012078679	-0.069855421	0.15972491	-0.1040284	0.65374033	0.025710405	0.025419638	0.25041495	0.41545194	-0.19975138	0.64127736	0.44967749	0.091540136	0.26925619	0.37709318	-0.084311085	0.657687	0.45951423	-0.038792261	0.3568706	0.78801098	-0.23306939	0.47367068	0.82038993	0.14088819	0.44509722	0.88697838	-0.19351549	0.51366934	0.91475443	0.044047554	0.29139872	0.90429763	-0.013979857	0.43358406	1.3709856	-0.20131005	0.41018875	1.3600101	0.1189041	0.33870418	1.3953795	-0.051092513	0.37753224	1.0237316	-0.24804389	0.2175332	1.0724737	0.12554509	0.65307957	0.9681963	-0.24347751	0.21804525	0.85194006	0.22728743
315	1.256	0.05095057	0.016674637	-0.13616584	0.84318852	0.04910297	0.032102834	-0.0088010946	0.13822227	-0.15754553	0.70305796	0.054145322	0.072118047	0.026580384	0.13961893	-0.08126479	0.7191713	0.083054614	-0.011871697	-0.061293987	0.16408778	-0.10362772	0.65437786	0.026327326	0.025885421	0.26057908	0.41505276	-0.2006284	0.64810272	0.45069733	0.092055444	0.27997808	0.37571264	-0.08598137	0.662584	0.46036761	-0.038666327	0.36546738	0.78708677	-0.23243679	0.48057247	0.82178905	0.14188398	0.45320441	0.88672855	-0.19219631	0.52060321	0.915833	0.045705492	0.29820127	0.90502288	-0.01413534	0.44048907	1.3717419	-0.2001585	0.41716057	1.3604671	0.11984943	0.34567764	1.3957919	-0.050056728	0.38106305	1.0250525	-0.24648667	0.22508392	1.0725978	0.12608548	0.65762178	0.96764672	-0.24329435	0.22505119	0.85204548	0.2275271
